<?xml version="1.0" encoding="UTF-8" standalone="no"?>
<!-- Created with Inkscape (http://www.inkscape.org/) -->

<svg
   xmlns:dc="http://purl.org/dc/elements/1.1/"
   xmlns:cc="http://creativecommons.org/ns#"
   xmlns:rdf="http://www.w3.org/1999/02/22-rdf-syntax-ns#"
   xmlns:svg="http://www.w3.org/2000/svg"
   xmlns="http://www.w3.org/2000/svg"
   xmlns:sodipodi="http://sodipodi.sourceforge.net/DTD/sodipodi-0.dtd"
   xmlns:inkscape="http://www.inkscape.org/namespaces/inkscape"
   width="55.324791mm"
   height="102.1594mm"
   viewBox="0 0 55.324791 102.1594"
   version="1.1"
   id="svg8"
   inkscape:version="0.92.3 (2405546, 2018-03-11)"
   sodipodi:docname="boo.svg">
  <defs
     id="defs2">
    <inkscape:path-effect
       effect="spiro"
       id="path-effect861"
       is_visible="true" />
    <inkscape:path-effect
       effect="spiro"
       id="path-effect831"
       is_visible="true" />
    <inkscape:path-effect
       effect="bspline"
       id="path-effect821"
       is_visible="true"
       weight="33.333333"
       steps="2"
       helper_size="0"
       apply_no_weight="true"
       apply_with_weight="true"
       only_selected="false" />
  </defs>
  <sodipodi:namedview
     id="base"
     pagecolor="#ffffff"
     bordercolor="#666666"
     borderopacity="1.0"
     inkscape:pageopacity="0.0"
     inkscape:pageshadow="2"
     inkscape:zoom="1.4"
     inkscape:cx="156.53015"
     inkscape:cy="289.7392"
     inkscape:document-units="mm"
     inkscape:current-layer="layer1"
     showgrid="false"
     showguides="false"
     fit-margin-top="0"
     fit-margin-left="0"
     fit-margin-right="0"
     fit-margin-bottom="0"
     inkscape:window-width="1920"
     inkscape:window-height="1057"
     inkscape:window-x="-8"
     inkscape:window-y="-8"
     inkscape:window-maximized="1" />
  <metadata
     id="metadata5">
    <rdf:RDF>
      <cc:Work
         rdf:about="">
        <dc:format>image/svg+xml</dc:format>
        <dc:type
           rdf:resource="http://purl.org/dc/dcmitype/StillImage" />
        <dc:title />
      </cc:Work>
    </rdf:RDF>
  </metadata>
  <g
     inkscape:label="Capa 1"
     inkscape:groupmode="layer"
     id="layer1"
     transform="translate(-63.877415,-20.313592)">
    <g
       id="g845">
      <ellipse
         ry="13.76438"
         rx="7.7508163"
         cy="50.443859"
         cx="77.775429"
         id="path815"
         style="opacity:1;vector-effect:none;fill:#000008;fill-opacity:1;stroke:none;stroke-width:3;stroke-linecap:round;stroke-linejoin:round;stroke-miterlimit:4;stroke-dasharray:none;stroke-dashoffset:0;stroke-opacity:1" />
      <path
         inkscape:connector-curvature="0"
         id="path835"
         d="m 65.305773,20.313592 a 13.95375,13.581649 76.648918 0 0 -0.488061,8.212679 13.95375,13.581649 76.648918 0 0 16.436783,10.439694 13.95375,13.581649 76.648918 0 0 10.264322,-11.738918 13.95375,13.581649 76.648918 0 1 -9.504002,8.499415 13.95375,13.581649 76.648918 0 1 -16.436245,-10.44056 13.95375,13.581649 76.648918 0 1 -0.272797,-4.97231 z"
         style="opacity:1;vector-effect:none;fill:#000008;fill-opacity:1;stroke:none;stroke-width:2;stroke-linecap:butt;stroke-linejoin:miter;stroke-miterlimit:4;stroke-dasharray:none;stroke-dashoffset:0;stroke-opacity:1" />
      <ellipse
         style="opacity:1;vector-effect:none;fill:#d9dadc;fill-opacity:1;stroke:none;stroke-width:3;stroke-linecap:round;stroke-linejoin:round;stroke-miterlimit:4;stroke-dasharray:none;stroke-dashoffset:0;stroke-opacity:1"
         id="ellipse840"
         cx="77.887001"
         cy="43.494854"
         rx="2.7842739"
         ry="4.9444861" />
    </g>
    <g
       id="g853"
       transform="matrix(-1,0,0,1,182.76503,0)">
      <ellipse
         style="opacity:1;vector-effect:none;fill:#000008;fill-opacity:1;stroke:none;stroke-width:3;stroke-linecap:round;stroke-linejoin:round;stroke-miterlimit:4;stroke-dasharray:none;stroke-dashoffset:0;stroke-opacity:1"
         id="ellipse847"
         cx="77.775429"
         cy="50.443859"
         rx="7.7508163"
         ry="13.76438" />
      <path
         style="opacity:1;vector-effect:none;fill:#000008;fill-opacity:1;stroke:none;stroke-width:2;stroke-linecap:butt;stroke-linejoin:miter;stroke-miterlimit:4;stroke-dasharray:none;stroke-dashoffset:0;stroke-opacity:1"
         d="m 67.747455,20.313592 a 13.95375,13.581649 76.648918 0 0 -0.488061,8.212679 13.95375,13.581649 76.648918 0 0 16.436783,10.439694 13.95375,13.581649 76.648918 0 0 10.264322,-11.738918 13.95375,13.581649 76.648918 0 1 -9.504002,8.499415 13.95375,13.581649 76.648918 0 1 -16.436245,-10.44056 13.95375,13.581649 76.648918 0 1 -0.272797,-4.97231 z"
         id="path849"
         inkscape:connector-curvature="0" />
      <ellipse
         ry="4.9444861"
         rx="2.7842739"
         cy="43.494854"
         cx="77.887001"
         id="ellipse851"
         style="opacity:1;vector-effect:none;fill:#d9dadc;fill-opacity:1;stroke:none;stroke-width:3;stroke-linecap:round;stroke-linejoin:round;stroke-miterlimit:4;stroke-dasharray:none;stroke-dashoffset:0;stroke-opacity:1" />
    </g>
    <path
       style="opacity:1;vector-effect:none;fill:#000000;fill-opacity:1;stroke:none;stroke-width:7.55905533;stroke-linecap:butt;stroke-linejoin:miter;stroke-miterlimit:4;stroke-dasharray:none;stroke-dashoffset:0;stroke-opacity:1"
       d="m 0,220.44922 c -1.3644126e-4,59.18662 19.927148,113.87739 52.275391,143.4707 32.348124,29.5932 72.202659,29.5932 104.550779,0 32.34824,-29.59331 52.27553,-84.28408 52.27539,-143.4707 h -8.90429 c -30.68943,56.72888 -31.61915,58.58984 -31.61915,58.58984 l -23.24804,-58.58984 h -2.21094 c -20.94676,38.71971 -21.58203,39.99023 -21.58203,39.99023 l -15.86914,-39.99023 c -1.01888,0 -2.03776,0 -3.05664,0 l -15.869142,39.99023 c -10e-7,0 -0.635304,-1.27052 -21.582032,-39.99023 h -2.210937 l -23.248047,58.58984 c 0,0 -0.929747,-1.86096 -31.6191408,-58.58984 z"
       transform="matrix(0.26458333,0,0,0.26458333,63.877415,20.313592)"
       id="path855"
       inkscape:connector-curvature="0"
       sodipodi:nodetypes="csscccccccccccccc" />
    <ellipse
       style="opacity:1;vector-effect:none;fill:#b3184d;fill-opacity:1;stroke:none;stroke-width:2;stroke-linecap:butt;stroke-linejoin:miter;stroke-miterlimit:4;stroke-dasharray:none;stroke-dashoffset:0;stroke-opacity:1"
       id="path857"
       cx="91.406174"
       cy="111.64857"
       rx="15.234363"
       ry="9.7553377" />
  </g>
</svg>
