<svg xmlns="http://www.w3.org/2000/svg" width="1440" height="602" viewBox="0 0 381 159" version="1">
    <path d="M0 159V40h9v34h5V7h6v47h2V26h11v49h13V30h9v43h9l5-62 11 3-6 85h29V44h4v27h11v28h33V58h11v14h9v20h47V31h11v14h5v48h12V45h20V20h17v17h4v36h6v38h23V25h20V4h15v130h16V6h7v139h7v14H0z" fill="#c80e0c"/>
    <path d="M0 64h27v39h22l1-61 19-2 4 28 18 8-3 31v18l23 1 3-101 23 1-3 100h27V57l18-2 4 35h8l3-65 16 4v58h4l4-32 15 1-4 35 15-2-1 37 13-2 4-88h18v91h27l8-116h15v119l8-2V37l11 3v84l16-3V40h17v119H0z" fill="#190000"/>
    <path d="M0 87h15v8h6v9h5V21h16v83h10V37l2-37 13 1-2 40 8 30-6 22h9l1-26h11V20h7l4 80 15 6 3 21h13V48h22V21h12l7 108h9l-4-90h5V13h4v36h4v80h31l1-111 22-4-6 115h12l1-74 12 4-3 70h30l3-104 23-1 1 29 24 3v73l15-3-7-98 21-7 5 103 7-1v36H0z" fill="#1c1b18"/>
</svg>
