<?xml version="1.0" encoding="UTF-8" standalone="no"?>
<svg
   xmlns:dc="http://purl.org/dc/elements/1.1/"
   xmlns:cc="http://creativecommons.org/ns#"
   xmlns:rdf="http://www.w3.org/1999/02/22-rdf-syntax-ns#"
   xmlns:svg="http://www.w3.org/2000/svg"
   xmlns="http://www.w3.org/2000/svg"
   xmlns:xlink="http://www.w3.org/1999/xlink"
   xmlns:sodipodi="http://sodipodi.sourceforge.net/DTD/sodipodi-0.dtd"
   xmlns:inkscape="http://www.inkscape.org/namespaces/inkscape"
   viewBox="0 0 64 97"
   version="1.1"
   id="svg28"
   sodipodi:docname="rabbit.min.svg"
   inkscape:version="0.92.3 (2405546, 2018-03-11)">
  <metadata
     id="metadata32">
    <rdf:RDF>
      <cc:Work
         rdf:about="">
        <dc:format>image/svg+xml</dc:format>
        <dc:type
           rdf:resource="http://purl.org/dc/dcmitype/StillImage" />
      </cc:Work>
    </rdf:RDF>
  </metadata>
  <sodipodi:namedview
     pagecolor="#ffffff"
     bordercolor="#666666"
     borderopacity="1"
     objecttolerance="10"
     gridtolerance="10"
     guidetolerance="10"
     inkscape:pageopacity="0"
     inkscape:pageshadow="2"
     inkscape:window-width="1073"
     inkscape:window-height="731"
     id="namedview30"
     showgrid="false"
     inkscape:zoom="4.8659794"
     inkscape:cx="57.103415"
     inkscape:cy="43.99886"
     inkscape:window-x="0"
     inkscape:window-y="0"
     inkscape:window-maximized="0"
     inkscape:current-layer="svg28" />
  <style
     id="style2">
    svg {
        width: 240px;
        height: 365px;
    }
</style>
  <defs
     id="defs10">
    <linearGradient
       id="a">
      <stop
         offset="0"
         stop-color="#d2d2d2"
         id="stop4" />
      <stop
         offset="1"
         stop-color="#fff"
         stop-opacity=".97"
         id="stop6" />
    </linearGradient>
    <linearGradient
       xlink:href="#a"
       id="b"
       x1="49.6"
       y1="26.78"
       x2="38.37"
       y2="102.57"
       gradientUnits="userSpaceOnUse" />
  </defs>
  <g
     transform="translate(-10.29 -11.46)"
     id="g26">
    <path
       d="M27.26 61.93c-.09-8.04-.78-9.14-.66-15.57.24-13.29 2.27-23.6 3.86-26.43 2.4-4.28 5.88-7.22 9.63-6.95 3.74.27 6.14-.07 7.75 2.6 1.6 2.68-1.93 12.68-3 15.9-1.06 3.2-3.14 12.22-3.56 18-.43 5.76-1.45 13.65-1.45 13.65 1.45-.35 5.87-.13 6.4 1.84 0 0 2.05-11.7 3.65-19.45s2.81-15.6 5.22-19.88c2.4-4.28 5.31-7.11 8.79-7.11 3.47 0 5.24 1.44 7.11 4.38 1.88 2.94 1.37 7.79-.59 12.69-2.71 6.77-5.42 12.64-7.8 18.02-2.1 4.74-5.03 10.32-2.48 13.82 2.4 3.3 6.56 5.94 7.74 10.02a42.2 42.2 0 0 1 1.71 9.3 18.66 18.66 0 0 1-3.57 12.21c-2.95 3.98-8.82 9.1-21.92 7.49-13.1-1.6-20.15-.47-25.09-3.67-4.56-3-7.21-7.48-7.21-12.29 0-4.81.84-8.92 3.17-14.24 2.33-4.57 3.82-6.59 5.7-8.2 1.86-1.6 6.6-6.13 6.6-6.13z"
       fill="url(#b)"
       stroke="#000"
       stroke-width="3"
       stroke-linejoin="round"
       id="path12" />
    <path
       d="m 36.44,92.64 c 2.26,2.69 3.5,2.27 4.86,1.65 0.63,-0.48 1.13,-1.24 1.13,-1.24 m -9.11,5 c 2.28,1.52 3.57,1.29 4.71,0.94 1.15,-0.35 1.15,-0.7 1.15,-0.7 m 0.17,0.36 c 2.28,1.52 3.2,1.35 4.35,1 1.14,-0.35 1.51,-0.77 1.51,-0.77 m -6,-0.42 0.11,-3.48"
       id="mouth"
       inkscape:connector-curvature="0"
       style="fill:none;stroke:#000000;stroke-linecap:round" />
    <g
       id="eyes">
      <ellipse
         id="ellipse14"
         transform="matrix(0.98172,0.1903,-0.1354,0.9908,0,0)"
         ry="4.5300002"
         rx="2.96"
         cy="72.730003"
         cx="44.490002"
         style="fill:#000006" />
      <ellipse
         id="ellipse18"
         cx="57.299999"
         cy="71.870003"
         rx="2.96"
         ry="4.5300002"
         transform="matrix(0.98172,0.1903,-0.1354,0.9908,0,0)"
         style="fill:#000006" />
    </g>
    <path
       d="m 32.02,52.16 c -0.44,-7.17 -0.45,-11.35 0.49,-18.78 0.53,-2.45 1.3,-5.19 3.5,-6.66 1.35,-0.92 3.45,-0.2 3.5,1.57 0.63,3.37 -0.89,6.6 -1.46,9.87 a 69.25,69.25 0 0 0 -1.49,14.15 c -0.1,3 -0.09,6.08 -1.01,8.97 -1.18,1.05 -1.79,1.06 -2.95,-0.16 -0.48,-1.87 -0.65,-2 -0.5,-3.9 0.03,-0.33 -0.12,-4.72 -0.08,-5.06 z m 20.88,0.89 c 1.92,-8.26 2.8,-10.15 4.95,-15.99 1.9,-5.16 5.04,-5.87 6.37,-4.83 1.34,1.04 0.11,5.23 -0.82,6.97 -0.93,1.74 -4.1,9.6 -6.07,14.91 -1.5,4.01 -2.13,5.65 -3.2,8.13 -1.08,2.48 -0.2,2.6 -2.35,2.75 -2.15,0.15 1.13,-11.94 1.13,-11.94 z"
       id="ears"
       inkscape:connector-curvature="0"
       style="fill:#fe78a1" />
    <g
       id="sunglasses">
      <path
         id="path22"
         d="m 64,90.39 0.13,-1.33 2.65,0.26 0.25,-2.66 2.21,0.21 0.21,-2.2 2.65,0.25 0.21,-2.21 14.6,1.38 -0.22,2.21 4.86,0.47 0.22,-2.21 -4.87,-0.47 0.25,-2.65 -73.82,-7.02 -0.46,4.86 2.2,0.21 -0.2,2.21 2.65,0.25 -0.25,2.66 17.24,1.64 0.25,-2.66 2.65,0.26 0.21,-2.21 4.87,0.46 -0.26,2.65 2.21,0.21 -0.2,2.21 2.65,0.25 -0.21,2.21 17.24,1.64 z"
         inkscape:connector-curvature="0" />
      <path
         id="path24"
         d="m 25.69,80.5 2.2,0.21 -0.2,2.21 -2.21,-0.2 z m 2.86,-1.96 2.21,0.21 -0.21,2.21 -2.21,-0.2 z m 2,2.42 2.21,0.21 -0.21,2.21 -2.21,-0.2 z m 2.42,-2 2.21,0.21 -0.21,2.21 -2.21,-0.2 z m 24.55,4.57 2.2,0.2 -0.2,2.22 -2.21,-0.21 z m 2.86,-1.96 2.2,0.21 -0.2,2.21 -2.21,-0.2 z m 2,2.42 2.2,0.21 -0.2,2.21 -2.21,-0.2 z m 2.42,-2 2.2,0.21 -0.2,2.21 -2.21,-0.2 z m -9.7,3.54 2.2,0.2 -0.2,2.22 -2.22,-0.21 z m 4.86,0.46 2.2,0.21 -0.2,2.21 -2.21,-0.2 z"
         inkscape:connector-curvature="0"
         style="fill:#ffffff;stroke-width:2.25" />
    </g>
  </g>
</svg>
