<svg xmlns="http://www.w3.org/2000/svg" width="198.92628mm" height="198.97781mm" viewBox="0 0 198.92628 198.97781">
    <defs>
        <radialGradient id="c" cx="106.73546" cy="19.52499" gradientTransform="scale(1.23202 .81168)" fx="106.73546" fy="19.52499" r="78.326782" gradientUnits="userSpaceOnUse">
            <stop stop-color="#f06b59"/>
            <stop stop-color="#df2227" offset="1"/>
        </radialGradient>
        <radialGradient id="d" cx="122.26707" cy="108.80645" r="122.76932" gradientTransform="scale(.92838 1.07714)" fx="122.26707" fy="108.80645" gradientUnits="userSpaceOnUse">
            <stop stop-color="#4cb749" offset=".65"/>
            <stop stop-color="#388b41" offset="1"/>
        </radialGradient>
        <radialGradient id="e" cx="187.90099" cy="102.2451" r="111.5125" gradientTransform="scale(.86407 1.15731)" fx="187.90099" fy="102.2451" gradientUnits="userSpaceOnUse">
            <stop stop-color="#FCD209" offset=".6"/>
            <stop stop-color="#f7c616" offset=".7"/>
            <stop stop-color="#bc821e" offset="1"/>
        </radialGradient>
        <radialGradient id="a" spreadMethod="pad" cx="127.5" cy="78.099998" r="99" fx="127.5" fy="78.099998" gradientUnits="userSpaceOnUse">
            <stop stop-color="#7FB3DF" offset=".1"/>
            <stop stop-color="#0F5B94" offset=".9"/>
        </radialGradient>
        <radialGradient cx="127.5" cy="78.099998" r="99" id="b" fx="127.5" fy="78.099998" gradientUnits="userSpaceOnUse">
            <stop stop-color="#F6F0EE" offset="0"/>
            <stop stop-color="#ddd" offset="1"/>
        </radialGradient>
    </defs>
    <g transform="matrix(.8904 0 0 .8904 -14.2734102 -14.1110019)">
        <path d="M198 148a70 70 0 0 0-140 0h20a50 50 0 0 1 100 0" fill-opacity=".1"/>
        <circle cy="127.6" cx="127.5" r="45" fill="url(#a)" stroke="url(#b)" stroke-width="11.230937"/>
        <path d="M228 78A112 112 0 0 0 35 65l45 78a50 50 0 0 1 47-65" fill="url(#c)"/>
        <path d="M35 65a112 112 0 0 0 84 174l47-80a50 50 0 0 1-86-16" fill="url(#d)"/>
        <path d="M119 239A112 112 0 0 0 228 78H127a50 50 0 0 1 39 81" fill="url(#e)"/>
        <path d="M35 65l45 78a50 50 0 0 1 2-34L37 62" opacity=".075"/>
        <path d="M119 239l47-80a50 50 0 0 1-29 17l-20 63M228 78H127a50 50 0 0 1 39 19l64-16" opacity=".05"/>
    </g>
</svg>
