<svg class="rabbit singafa off" xmlns="http://www.w3.org/2000/svg" xmlns:xlink="http://www.w3.org/1999/xlink" viewBox="0 0 64 97">
<defs>
    <linearGradient id="a">
    <stop offset="0" stop-color="#ccc" />
    <stop offset="1" stop-color="#fff" />
    </linearGradient>
    <linearGradient xlink:href="#a" id="b" x1="50" y1="27" x2="38" y2="102" gradientUnits="userSpaceOnUse"/>
</defs>
<path class="head" d="M27.26 61.93c-.09-8.04-.78-9.14-.66-15.57.24-13.29 2.27-23.6 3.86-26.43 2.4-4.28 5.88-7.22 9.63-6.95 3.74.27 6.14-.07 7.75 2.6 1.6 2.68-1.93 12.68-3 15.9-1.06 3.2-3.14 12.22-3.56 18-.43 5.76-1.45 13.65-1.45 13.65 1.45-.35 5.87-.13 6.4 1.84 0 0 2.05-11.7 3.65-19.45s2.81-15.6 5.22-19.88c2.4-4.28 5.31-7.11 8.79-7.11 3.47 0 5.24 1.44 7.11 4.38 1.88 2.94 1.37 7.79-.59 12.69-2.71 6.77-5.42 12.64-7.8 18.02-2.1 4.74-5.03 10.32-2.48 13.82 2.4 3.3 6.56 5.94 7.74 10.02a42.2 42.2 0 0 1 1.71 9.3 18.66 18.66 0 0 1-3.57 12.21c-2.95 3.98-8.82 9.1-21.92 7.49-13.1-1.6-20.15-.47-25.09-3.67-4.56-3-7.21-7.48-7.21-12.29 0-4.81.84-8.92 3.17-14.24 2.33-4.57 3.82-6.59 5.7-8.2 1.86-1.6 6.6-6.13 6.6-6.13z" fill="url(#b)" stroke="#000" stroke-width="3" stroke-linejoin="round" transform="translate(-10.29 -11.46)"/>
<path class="mouth" d="M26.15 81.18c2.26 2.69 3.5 2.27 4.86 1.65.63-.48 1.13-1.24 1.13-1.24m-9.11 5c2.28 1.52 3.57 1.29 4.71.94 1.15-.35 1.15-.7 1.15-.7m.17.36c2.28 1.52 3.2 1.35 4.35 1 1.14-.35 1.51-.77 1.51-.77m-6-.42l.11-3.48" fill="none" stroke="#000" stroke-linecap="round"/>
<g fill="#000006">
    <ellipse cx="20" cy="70" rx="3" ry="5" />
    <ellipse cx="40" cy="71" rx="3" ry="5" />
</g>
<path class="ears" d="M21.73 40.7c-.44-7.17-.45-11.35.49-18.78.53-2.45 1.3-5.19 3.5-6.66 1.35-.92 3.45-.2 3.5 1.57.63 3.37-.89 6.6-1.46 9.87a69.25 69.25 0 0 0-1.49 14.15c-.1 3-.09 6.08-1.01 8.97-1.18 1.05-1.79 1.06-2.95-.16-.48-1.87-.65-2-.5-3.9.03-.33-.12-4.72-.08-5.06zm20.88.89c1.92-8.26 2.8-10.15 4.95-15.99 1.9-5.16 5.04-5.87 6.37-4.83 1.34 1.04.11 5.23-.82 6.97-.93 1.74-4.1 9.6-6.07 14.91a155.9 155.9 0 0 1-3.2 8.13c-1.08 2.48-.2 2.6-2.35 2.75-2.15.15 1.13-11.94 1.13-11.94z" fill="#fe78a1" />
<g class="sunglasses">
    <path d="M54 79l0-1 2.65.26.25-2.66 2.21.21.21-2.2 2.65.25.21-2.21 14.6 1.38-.22 2.21 4.86.47.22-2.21-4.87-.47.25-2.65-73.82-7.02-.46 4.86 2.2.21-.2 2.21 2.65.25-.25 2.66 17.24 1.64.25-2.66 2.65.26.21-2.21 4.87.46-.26 2.65 2.21.21-.2 2.21 2.65.25-.21 2.21 17.24 1.64z"/>
    <path d="M15 69l2.2.21-.2 2.21-2.21-.2zm2.86-1.96l2.21.21-.21 2.21-2.21-.2zm2 2.42l2.21.21-.21 2.21-2.21-.2zm2.42-2l2.21.21-.21 2.21-2.21-.2zm24.55 4.57l2.2.2-.2 2.22-2.21-.21zm2.86-1.96l2.2.21-.2 2.21-2.21-.2zm2 2.42l2.2.21-.2 2.21-2.21-.2zm2.42-2l2.2.21-.2 2.21-2.21-.2zm-9.7 3.54l2.2.2-.2 2.22-2.22-.21zm4.86.46l2.2.21-.2 2.21-2.21-.2z" fill="#fff"/>
</g>
</svg>
